<svg width="40" height="40" viewBox="0 0 40 40" fill="none" xmlns="http://www.w3.org/2000/svg">
<rect width="40" height="40" rx="20" fill="#69ACBE"/>
<path d="M18.7686 14.7112C18.7686 13.6492 17.5401 13.0587 16.7107 13.7222L13.6885 16.14C13.4639 16.3196 13.1849 16.4175 12.8973 16.4175H10.2666C9.56707 16.4175 9 16.9846 9 17.6841V21.6633C9 22.3628 9.56707 22.9299 10.2666 22.9299H12.8973C13.1849 22.9299 13.4639 23.0278 13.6885 23.2074L16.7107 25.6252C17.5401 26.2887 18.7686 25.6982 18.7686 24.6362V14.7112Z" fill="white"/>
<path d="M27.5277 12C29.5625 14.0354 30.7056 16.7957 30.7056 19.6737C30.7056 22.5518 29.5625 25.3121 27.5277 27.3475M23.6963 15.8314C24.7137 16.8492 25.2852 18.2293 25.2852 19.6683C25.2852 21.1074 24.7137 22.4875 23.6963 23.5052" stroke="white" stroke-width="1.68878" stroke-linecap="round" stroke-linejoin="round"/>
</svg>
